<svg xmlns="http://www.w3.org/2000/svg" viewBox="0 -6.0 344 88.0" width="344" height="88" role="img" aria-label="Uploaded">
  <defs><linearGradient id="g" x1="0" y1="0" x2="1" y2="1"><stop offset="0" stop-color="#A9C8F5"/><stop offset="1" stop-color="#3B6FC4"/></linearGradient><linearGradient id="gu" gradientUnits="userSpaceOnUse" x1="19.12" y1="24.48" x2="50.88" y2="59.47"><stop offset="0" stop-color="#A9C8F5"/><stop offset="1" stop-color="#3B6FC4"/></linearGradient></defs>
  <rect x="0" y="-6.0" width="344" height="88.0" fill="#FFFFFF"/>
  <g fill="none" stroke="url(#gu)" stroke-width="7.45" stroke-linecap="round" stroke-linejoin="round"><path d="M 35.00 52.34 V 25.45"/><path d="M 23.01 36.79 L 35.00 24.48 L 46.99 36.79"/><path d="M 19.12 59.47 H 50.88"/></g>
  <path transform="translate(78.00 69.15) scale(0.05800 -0.05800)" d="M312 -14.17Q256.83 -14.17 212.83 -1.5Q168.83 11.17 136.58 34.75Q104.33 58.33 82.83 91.5Q61.33 124.67 50.67 166.75Q40 208.83 40 258.33V660H184.5V266Q184.5 214.33 200 180.67Q215.5 147 243.83 131Q272.17 115 312 115Q353 115 381.25 131.08Q409.5 147.17 424.92 180.42Q440.33 213.67 440.33 266V660H584.67V258.33Q584.67 128.33 514.92 57.08Q445.17 -14.17 312 -14.17Z" fill="#14121C"/>
  <path transform="translate(113.79 69.15) scale(0.05800 -0.05800)" d="M38.33 -145.83 38.67 326.83 38.33 525H166.17L163.33 360.33H170.5Q182 421.33 205 461Q228 500.67 262.92 519.83Q297.83 539 345.5 539Q406.5 539 450.58 508.08Q494.67 477.17 518.17 416.17Q541.67 355.17 541.67 264.67Q541.67 169 516 107.25Q490.33 45.5 446.17 15.83Q402 -13.83 345.83 -13.83Q299 -13.83 263.58 6.5Q228.16 26.83 205.41 67.92Q182.66 109 173.83 170L164.5 169.83Q169.83 137 173.91 104.25Q178 71.5 180.41 41.08Q182.83 10.67 182.83 -17V-145.83ZM293.5 106.17Q327.67 106.17 350.42 126.83Q373.17 147.5 384.33 182.58Q395.5 217.67 395.5 259.83Q395.5 304 383.92 338.92Q372.33 373.83 349.67 394.33Q327 414.83 293.67 414.83Q269.83 414.83 249.42 404.33Q229 393.83 214 374.17Q199 354.5 190.41 326.67Q181.83 298.83 181.83 263.33V256.17Q181.83 229 187.5 206.17Q193.16 183.33 203.16 164.75Q213.16 146.17 227.16 133Q241.17 119.83 257.92 113Q274.67 106.17 293.5 106.17Z" fill="#14121C"/>
  <path transform="translate(146.38 69.15) scale(0.05800 -0.05800)" d="M38.67 0V695H183V0Z" fill="#14121C"/>
  <path transform="translate(158.91 69.15) scale(0.05800 -0.05800)" d="M281.67 -13.83Q207 -13.83 148.67 16.58Q90.33 47 57.42 108.25Q24.5 169.5 24.5 261.83Q24.5 357.17 58.58 418.33Q92.67 479.5 151.17 509.25Q209.67 539 283.17 539Q359.33 539 417.17 508.42Q475 477.83 507.5 416.5Q540 355.17 540 262Q540 166.5 506.08 105.42Q472.17 44.33 413.67 15.25Q355.17 -13.83 281.67 -13.83ZM284.83 94.33Q319.83 94.33 344 113Q368.17 131.67 381 167.75Q393.83 203.83 393.83 254.17Q393.83 308.67 380.08 346.42Q366.33 384.17 340.75 404.58Q315.17 425 279.17 425Q245 425 220.75 406Q196.5 387 183.58 350.67Q170.66 314.33 170.66 263.5Q170.66 183.67 200.92 139Q231.17 94.33 284.83 94.33Z" fill="#14121C"/>
  <path transform="translate(191.04 69.15) scale(0.05800 -0.05800)" d="M175.5 -13.83Q135.33 -13.83 99.75 0.33Q64.17 14.5 41.75 45.92Q19.33 77.33 19.33 129.5Q19.33 177.5 37.83 207.58Q56.33 237.67 87.92 256.08Q119.5 274.5 157.83 284.17Q196.17 293.83 235 300.83Q288.17 310.67 314.5 316.58Q340.83 322.5 350.08 330.75Q359.33 339 359.33 353.67Q359.33 387.67 335.08 405.5Q310.83 423.33 272.5 423.33Q248.67 423.33 225 414.5Q201.33 405.67 185.92 383.92Q170.5 362.17 170.5 323L41.33 333.5Q40.83 393.67 61.58 433.58Q82.33 473.5 117.42 496.42Q152.5 519.33 194.17 529.17Q235.83 539 277.17 539Q351.17 539 400.75 511.33Q450.33 483.67 475.25 430.75Q500.17 377.83 500.17 301.17V206.17Q500.33 172 500.42 137.33Q500.5 102.67 500.58 68.42Q500.67 34.17 500.67 0H374.33Q375.17 38.33 375.83 76.92Q376.5 115.5 377.17 158.17H370.67Q365.83 110.83 339.92 71.75Q314 32.67 272.08 9.42Q230.17 -13.83 175.5 -13.83ZM232 93.5Q252.5 93.5 274.58 101.58Q296.67 109.67 315.83 127.17Q335 144.67 347 173.42Q359 202.17 359.33 242.67L359.5 266.33L386.33 270.67Q377.5 257 357.42 248.92Q337.33 240.83 312.08 236.25Q286.83 231.67 261.08 226.92Q235.33 222.17 213.33 213.83Q191.33 205.5 177.66 191.33Q164 177.17 164 152.33Q164 124.17 183.25 108.83Q202.5 93.5 232 93.5Z" fill="#14121C"/>
  <path transform="translate(221.72 69.15) scale(0.05800 -0.05800)" d="M226.5 -13.83Q170 -13.83 124.25 16.5Q78.5 46.83 51.58 109.17Q24.67 171.5 24.67 267.33Q24.67 357.83 49.08 418.25Q73.5 478.67 117.92 508.83Q162.33 539 221.33 539Q269 539 305 518.92Q341 498.83 364 456.5Q387 414.17 396 347.5H405.17Q399.83 384.83 395 418.92Q390.17 453 387.75 483.83Q385.33 514.67 385.33 541.33V695H530L529.5 196.33L530.17 0H403L405.5 166.33H398.17Q386.67 106.67 363.75 66.5Q340.83 26.33 306.83 6.25Q272.83 -13.83 226.5 -13.83ZM274.17 102.67Q298.33 102.67 318.92 113.83Q339.5 125 354.42 145.92Q369.33 166.83 377.83 195.08Q386.33 223.33 386.33 257.33V264.5Q386.33 291.17 380.67 314.75Q375 338.33 364.92 357.08Q354.83 375.83 340.92 389.33Q327 402.83 310 410.08Q293 417.33 274.17 417.33Q240.83 417.33 217.5 395.83Q194.17 374.33 182.5 338.42Q170.83 302.5 170.83 258.17Q170.83 214.67 182.91 179.17Q195 143.67 218.08 123.17Q241.17 102.67 274.17 102.67Z" fill="#14121C"/>
  <path transform="translate(254.32 69.15) scale(0.05800 -0.05800)" d="M285 -13.83Q213.5 -13.83 164.08 7.08Q114.67 28 83.67 64.92Q52.67 101.83 38.58 150Q24.5 198.17 24.5 252.83Q24.5 309.83 39.08 361.42Q53.67 413 84 452.92Q114.33 492.83 161.92 515.92Q209.5 539 275.5 539Q340.17 539 387.08 516.67Q434 494.33 462.75 454.08Q491.5 413.83 501 360.17Q510.5 306.5 501 243.17L114.33 237V318.5L391.33 323.67L370.67 276.5Q375.67 323.33 366.67 356.17Q357.67 389 335.42 406.5Q313.17 424 275.5 424Q235.5 424 210.67 403.58Q185.83 383.17 174.92 346.25Q164 309.33 164 259.67Q164 175.5 194.58 135.25Q225.17 95 286.5 95Q314.33 95 332.83 102.58Q351.33 110.17 362.58 123.75Q373.83 137.33 378.25 155.33Q382.67 173.33 381.5 194L514 186.33Q516.33 151 505.67 115.75Q495 80.5 468.42 51.33Q441.83 22.17 396.67 4.17Q351.5 -13.83 285 -13.83Z" fill="url(#g)"/>
  <path transform="translate(285.12 69.15) scale(0.05800 -0.05800)" d="M226.5 -13.83Q170 -13.83 124.25 16.5Q78.5 46.83 51.58 109.17Q24.67 171.5 24.67 267.33Q24.67 357.83 49.08 418.25Q73.5 478.67 117.92 508.83Q162.33 539 221.33 539Q269 539 305 518.92Q341 498.83 364 456.5Q387 414.17 396 347.5H405.17Q399.83 384.83 395 418.92Q390.17 453 387.75 483.83Q385.33 514.67 385.33 541.33V695H530L529.5 196.33L530.17 0H403L405.5 166.33H398.17Q386.67 106.67 363.75 66.5Q340.83 26.33 306.83 6.25Q272.83 -13.83 226.5 -13.83ZM274.17 102.67Q298.33 102.67 318.92 113.83Q339.5 125 354.42 145.92Q369.33 166.83 377.83 195.08Q386.33 223.33 386.33 257.33V264.5Q386.33 291.17 380.67 314.75Q375 338.33 364.92 357.08Q354.83 375.83 340.92 389.33Q327 402.83 310 410.08Q293 417.33 274.17 417.33Q240.83 417.33 217.5 395.83Q194.17 374.33 182.5 338.42Q170.83 302.5 170.83 258.17Q170.83 214.67 182.91 179.17Q195 143.67 218.08 123.17Q241.17 102.67 274.17 102.67Z" fill="url(#g)"/>
</svg>